<svg width="512" height="512" viewBox="0 0 512 512" fill="none" xmlns="http://www.w3.org/2000/svg">
<g clip-path="url(#clip0_1_2)">
<path d="M287.946 508.867H224.054C219.688 508.867 215.967 505.698 215.272 501.387L206.533 447.138C188.721 442.544 171.717 435.494 155.837 426.122L111.283 458.313C107.744 460.869 102.871 460.481 99.7837 457.393L54.6068 412.215C51.5191 409.127 51.1289 404.255 53.6866 400.715L85.8772 356.164C76.5067 340.289 69.4559 323.281 64.8599 305.467L10.6118 296.728C6.30073 296.033 3.13116 292.313 3.13116 287.946V224.053C3.13116 219.686 6.30073 215.966 10.6118 215.271L64.8599 206.534C69.4556 188.718 76.5065 171.71 85.8766 155.835L53.6866 111.285C51.1289 107.745 51.5191 102.873 54.6068 99.7848L99.7837 54.6054C102.872 51.518 107.745 51.128 111.283 53.6852L155.836 85.8758C171.715 76.503 188.719 69.4545 206.533 64.8596L215.272 10.6129C215.967 6.30158 219.688 3.1323 224.054 3.1323H287.945C292.312 3.1323 296.033 6.30186 296.728 10.6129L305.467 64.8602C323.281 69.4542 340.288 76.5047 356.164 85.8775L400.717 53.6863C404.254 51.128 409.126 51.5189 412.217 54.6065L457.394 99.7845C460.481 102.872 460.871 107.745 458.313 111.284L426.123 155.836C435.498 171.717 442.547 188.721 447.141 206.533L501.388 215.271C505.699 215.966 508.869 219.686 508.869 224.053V287.945C508.869 292.312 505.699 296.033 501.388 296.728L447.14 305.467C442.544 323.281 435.494 340.289 426.123 356.164L458.313 400.717C460.871 404.256 460.481 409.128 457.394 412.217L412.217 457.394C409.129 460.483 404.256 460.87 400.717 458.313L356.161 426.122C340.286 435.492 323.28 442.543 305.467 447.137L296.728 501.387C296.033 505.698 292.312 508.867 287.946 508.867ZM231.632 491.077H280.368L288.843 438.466C289.421 434.879 292.124 432.002 295.669 431.203C315.606 426.709 334.499 418.879 351.822 407.927C354.891 405.985 358.836 406.105 361.784 408.236L404.994 439.455L439.455 404.995L408.237 361.787C406.108 358.841 405.986 354.897 407.928 351.825C418.878 334.502 426.71 315.608 431.208 295.669C432.007 292.123 434.882 289.421 438.47 288.843L491.078 280.368V231.631L438.47 223.157C434.882 222.579 432.005 219.876 431.206 216.331C426.714 196.398 418.882 177.504 407.928 160.176C405.986 157.104 406.108 153.159 408.237 150.213L439.455 107.007L404.995 72.5447L361.787 103.764C358.84 105.892 354.895 106.015 351.823 104.073C334.5 93.1203 315.608 85.2875 295.67 80.7942C292.124 79.9949 289.421 77.1197 288.843 73.5315L280.368 20.9234H231.632L223.157 73.53C222.579 77.1183 219.877 79.9937 216.331 80.793C196.395 85.2878 177.502 93.1197 160.176 104.071C157.103 106.013 153.16 105.89 150.213 103.762L107.006 72.5436L72.5447 107.007L103.763 150.212C105.892 153.158 106.014 157.103 104.072 160.175C93.1223 177.497 85.2898 196.391 80.793 216.332C79.9929 219.877 77.1177 222.579 73.53 223.157L20.922 231.631V280.368L73.53 288.843C77.1177 289.421 79.9932 292.123 80.793 295.668C85.289 315.607 93.1214 334.501 104.072 351.824C106.014 354.897 105.892 358.841 103.763 361.787L72.5447 404.993L107.006 439.455L150.213 408.236C153.158 406.106 157.103 405.983 160.175 407.927C177.504 418.879 196.398 426.71 216.331 431.205C219.876 432.005 222.579 434.88 223.157 438.467L231.632 491.077Z" fill="#66B3FF"/>
<path d="M256 392.81C180.562 392.81 119.188 331.436 119.188 255.998C119.188 180.56 180.562 119.186 256 119.186C331.44 119.186 392.814 180.56 392.814 255.998C392.814 331.436 331.44 392.81 256 392.81ZM256 136.977C190.372 136.977 136.979 190.369 136.979 255.998C136.979 321.626 190.372 375.02 256 375.02C321.63 375.02 375.023 321.626 375.023 255.998C375.023 190.369 321.63 136.977 256 136.977Z" fill="#66B3FF"/>
<path d="M199.78 297.08C194.74 297.08 190.24 296 186.28 293.84C182.392 291.608 179.332 288.548 177.1 284.66C174.94 280.7 173.86 276.2 173.86 271.16C173.86 269.504 174.4 268.172 175.48 267.164C176.56 266.084 177.892 265.544 179.476 265.544C181.132 265.544 182.464 266.084 183.472 267.164C184.552 268.172 185.092 269.504 185.092 271.16C185.092 274.256 185.704 276.992 186.928 279.368C188.224 281.744 189.952 283.616 192.112 284.984C194.344 286.28 196.9 286.928 199.78 286.928C202.66 286.928 205.216 286.28 207.448 284.984C209.68 283.616 211.408 281.744 212.632 279.368C213.928 276.992 214.576 274.256 214.576 271.16V217.268C214.576 215.612 215.08 214.28 216.088 213.272C217.168 212.192 218.5 211.652 220.084 211.652C221.74 211.652 223.108 212.192 224.188 213.272C225.268 214.28 225.808 215.612 225.808 217.268V271.16C225.808 276.2 224.692 280.7 222.46 284.66C220.228 288.548 217.168 291.608 213.28 293.84C209.392 296 204.892 297.08 199.78 297.08ZM253.021 296C251.437 296 250.105 295.46 249.025 294.38C247.945 293.3 247.405 291.968 247.405 290.384V217.268C247.405 215.612 247.945 214.28 249.025 213.272C250.105 212.192 251.437 211.652 253.021 211.652C255.181 211.652 256.837 212.66 257.989 214.676L291.793 282.392H288.337L321.277 214.676C322.429 212.66 324.085 211.652 326.245 211.652C327.829 211.652 329.161 212.192 330.241 213.272C331.321 214.28 331.861 215.612 331.861 217.268V290.384C331.861 291.968 331.285 293.3 330.133 294.38C329.053 295.46 327.757 296 326.245 296C324.661 296 323.329 295.46 322.249 294.38C321.169 293.3 320.629 291.968 320.629 290.384V232.82L322.789 232.28L294.493 289.952C293.269 291.824 291.649 292.76 289.633 292.76C287.257 292.76 285.529 291.644 284.449 289.412L256.477 233.36L258.637 232.82V290.384C258.637 291.968 258.097 293.3 257.017 294.38C255.937 295.46 254.605 296 253.021 296Z" fill="#66B3FF"/>
</g>
<defs>
<clipPath id="clip0_1_2">
<rect width="512" height="512" fill="white"/>
</clipPath>
</defs>
</svg>
