<?xml version="1.0" standalone="no"?>
<!DOCTYPE svg PUBLIC "-//W3C//DTD SVG 20010904//EN"
 "http://www.w3.org/TR/2001/REC-SVG-20010904/DTD/svg10.dtd">
<svg version="1.0" xmlns="http://www.w3.org/2000/svg"
 width="700.000000pt" height="700.000000pt" viewBox="0 0 700.000000 700.000000"
 preserveAspectRatio="xMidYMid meet">
<metadata>
Created by potrace 1.14, written by Peter Selinger 2001-2017
</metadata>
<g transform="translate(0.000000,700.000000) scale(0.100000,-0.100000)"
fill="#000000" stroke="none">
<path d="M3012 6944 c-55 -23 -66 -58 -106 -314 -5 -31 -74 -464 -80 -499 -2
-8 -60 -33 -147 -61 -169 -55 -327 -122 -454 -192 -84 -46 -92 -49 -114 -35
-13 8 -155 109 -315 224 -160 116 -302 214 -314 218 -64 19 -75 10 -426 -341
-351 -351 -360 -362 -341 -426 7 -21 160 -239 335 -477 36 -49 79 -108 94
-130 l29 -41 -26 -48 c-57 -106 -94 -181 -126 -257 -18 -44 -39 -93 -46 -110
-7 -16 -30 -84 -51 -150 -20 -66 -41 -123 -47 -126 -5 -4 -71 -16 -146 -28
-75 -12 -147 -23 -161 -26 -145 -25 -317 -52 -390 -61 -57 -7 -95 -27 -117
-61 -17 -25 -18 -66 -19 -493 -1 -270 3 -477 9 -493 17 -52 66 -74 202 -92 72
-10 107 -16 369 -58 l259 -43 47 -144 c63 -194 144 -382 212 -492 16 -26 28
-54 25 -61 -3 -7 -60 -89 -128 -183 -67 -93 -134 -185 -148 -205 -14 -20 -58
-81 -97 -135 -39 -55 -74 -110 -79 -122 -19 -64 -10 -75 341 -426 339 -339
356 -353 416 -342 31 5 30 4 508 351 100 72 151 103 163 99 10 -3 44 -20 76
-38 130 -74 323 -155 476 -201 119 -35 132 -41 132 -57 0 -7 3 -31 7 -53 4
-22 9 -53 12 -70 2 -16 9 -55 14 -85 5 -30 12 -73 15 -95 4 -22 8 -47 10 -55
2 -8 7 -37 11 -65 3 -27 8 -59 10 -70 2 -10 6 -37 10 -60 18 -126 35 -199 49
-222 32 -49 43 -50 543 -49 l467 1 32 23 c43 30 51 60 88 317 4 22 15 94 26
160 24 141 26 157 34 211 3 22 9 60 13 83 l7 43 160 53 c196 65 307 113 469
203 33 18 64 31 70 29 9 -4 254 -178 411 -293 148 -108 214 -153 233 -159 64
-19 75 -10 425 340 300 299 336 338 342 373 8 52 -5 78 -131 249 -200 275
-316 436 -320 448 -3 6 10 38 29 71 81 144 174 365 222 526 30 103 29 102 100
113 22 3 65 10 95 15 60 10 67 11 215 35 420 67 405 63 437 108 l23 32 1 460
c1 253 -3 474 -7 490 -16 57 -62 79 -209 101 -25 4 -54 8 -65 10 -38 7 -312
51 -484 78 l-74 11 -47 145 c-65 200 -121 330 -223 512 l-20 37 27 38 c76 107
125 175 260 361 80 111 154 218 163 236 34 72 30 77 -305 413 -389 389 -370
372 -425 369 -40 -2 -67 -19 -257 -157 -455 -329 -418 -305 -443 -289 -37 22
-249 127 -317 155 -36 15 -130 49 -210 75 l-144 48 -23 139 c-21 127 -39 241
-63 398 -5 33 -11 69 -14 80 -2 11 -7 43 -11 70 -10 70 -29 110 -61 132 -26
17 -61 18 -495 19 -357 1 -474 -2 -497 -12z m817 -239 c5 -6 12 -30 15 -55 19
-143 108 -669 117 -691 14 -35 54 -56 165 -85 205 -53 467 -164 630 -265 57
-36 78 -44 119 -44 47 0 57 5 175 91 69 49 206 149 306 221 l181 131 236 -236
235 -237 -45 -60 c-24 -33 -92 -127 -151 -209 -59 -81 -140 -194 -180 -250
-70 -96 -73 -103 -69 -146 2 -30 18 -67 45 -113 119 -193 234 -478 287 -711 3
-16 21 -43 38 -61 27 -26 45 -34 107 -43 41 -7 129 -21 195 -32 66 -11 137
-22 159 -26 21 -3 48 -7 60 -10 11 -2 68 -11 124 -19 130 -20 126 -19 132 -27
4 -5 5 -564 1 -644 -1 -11 -7 -21 -13 -21 -11 -1 -73 -10 -243 -38 -511 -82
-488 -77 -521 -109 -22 -22 -36 -51 -49 -101 -56 -221 -154 -461 -269 -660
-83 -143 -86 -131 109 -401 88 -120 187 -258 221 -305 l62 -86 -236 -236 -237
-236 -146 107 c-463 339 -459 337 -514 337 -41 0 -62 -8 -120 -44 -161 -101
-363 -187 -596 -255 -98 -29 -160 -53 -175 -67 -25 -24 -39 -63 -48 -139 -3
-25 -12 -83 -20 -130 -8 -47 -17 -103 -21 -125 -6 -40 -8 -53 -25 -155 -5 -30
-11 -71 -14 -90 -3 -19 -9 -56 -14 -82 -5 -26 -7 -50 -4 -53 7 -7 15 -7 -346
-8 -315 -2 -323 -2 -327 18 -5 24 -22 124 -31 180 -8 58 -63 396 -68 420 -2
11 -7 45 -11 75 -6 46 -14 61 -47 93 -21 20 -49 37 -61 37 -28 0 -279 76 -318
95 -15 8 -33 15 -39 15 -18 0 -232 105 -325 160 -75 45 -98 54 -140 54 -48 1
-56 -3 -210 -115 -88 -64 -226 -163 -306 -221 l-146 -106 -235 236 -236 237
222 305 c218 302 221 306 221 355 0 42 -8 62 -44 120 -55 87 -150 283 -190
392 -26 70 -52 155 -101 333 -6 22 -22 43 -42 56 -32 21 -53 27 -143 39 -22 3
-53 9 -70 12 -16 4 -39 8 -50 9 -30 3 -348 54 -365 59 -16 4 -107 17 -127 18
-16 0 -15 -27 -15 342 0 356 0 336 10 333 4 -1 30 2 57 6 28 5 60 10 72 11 24
3 95 15 128 21 11 2 40 7 65 10 25 3 54 8 65 10 11 3 79 14 150 25 179 28 203
34 231 60 22 21 48 83 58 142 8 46 93 288 127 362 18 39 33 72 34 75 3 14 71
139 108 198 34 55 42 76 42 117 0 47 -5 57 -91 175 -50 69 -149 206 -221 306
l-131 181 236 236 237 235 305 -221 c370 -269 338 -260 518 -155 178 104 394
193 590 243 52 13 104 31 118 40 47 31 48 34 109 415 2 14 9 57 15 95 7 39 14
84 16 100 3 17 10 55 16 85 6 30 10 65 10 77 0 12 8 23 16 25 42 8 643 1 651
-7z"/>
<path d="M3315 5363 c-84 -10 -217 -35 -305 -58 -232 -60 -546 -225 -715 -376
-113 -100 -155 -142 -223 -224 -143 -170 -271 -394 -341 -596 -35 -101 -77
-286 -88 -384 -10 -91 -10 -372 0 -455 24 -190 89 -407 177 -587 184 -375 484
-678 853 -858 99 -48 223 -99 267 -110 8 -2 50 -13 92 -25 87 -24 97 -26 165
-35 26 -4 59 -9 73 -12 60 -13 379 -11 474 3 616 87 1136 453 1415 996 109
211 166 397 199 638 15 112 7 459 -13 530 -2 8 -6 31 -9 50 -9 63 -73 273
-110 361 -144 340 -397 643 -707 845 -236 154 -492 249 -775 288 -88 12 -351
18 -429 9z m380 -247 c624 -76 1151 -510 1350 -1111 75 -229 99 -474 68 -711
-105 -801 -776 -1404 -1580 -1418 -118 -3 -163 0 -293 19 -36 5 -42 6 -125 25
-151 34 -375 132 -506 220 -477 322 -744 828 -734 1389 3 146 8 188 40 331
134 600 603 1074 1210 1223 55 14 175 33 250 40 54 5 258 0 320 -7z"/>
<path d="M2968 4092 c-12 -8 -25 -17 -28 -20 -3 -2 -5 -189 -6 -416 -1 -390
-2 -414 -21 -456 -25 -55 -56 -88 -99 -106 -43 -18 -122 -18 -167 1 -65 27
-117 116 -117 200 0 33 -41 75 -74 75 -14 0 -37 -10 -51 -23 -63 -53 -16 -230
85 -321 70 -63 119 -80 240 -80 93 -1 111 2 160 25 94 44 165 133 188 236 5
21 9 219 10 441 l1 402 -23 26 c-26 31 -66 38 -98 16z"/>
<path d="M3429 4099 c-15 -6 -32 -22 -37 -37 -7 -17 -10 -214 -10 -537 0 -449
2 -513 16 -537 9 -16 22 -29 29 -29 7 -1 19 -2 26 -3 29 -4 66 17 74 42 5 15
9 188 9 384 -1 196 2 354 6 350 3 -4 84 -162 178 -352 95 -190 179 -353 188
-362 20 -24 77 -23 100 0 16 16 162 305 330 654 20 42 39 77 42 78 3 0 5 -169
5 -375 0 -365 1 -375 21 -395 33 -34 71 -35 103 -3 l28 28 0 524 0 523 -22 26
c-25 29 -73 34 -101 11 -9 -7 -76 -135 -148 -283 -72 -149 -169 -348 -216
-444 l-85 -173 -220 441 c-121 243 -227 447 -235 454 -22 20 -52 25 -81 15z"/>
</g>
</svg>
